<?xml version="1.0" standalone="no"?><!DOCTYPE svg PUBLIC "-//W3C//DTD SVG 1.1//EN" "http://www.w3.org/Graphics/SVG/1.1/DTD/svg11.dtd"><svg t="1538633146087" class="icon" style="" viewBox="0 0 1024 1024" version="1.1" xmlns="http://www.w3.org/2000/svg" p-id="1528" xmlns:xlink="http://www.w3.org/1999/xlink" width="16" height="16"><defs><style type="text/css"></style></defs><path d="M768 1024H256a153.76384 153.76384 0 0 1-153.6-153.6V153.6A153.76384 153.76384 0 0 1 256 0h512a153.76384 153.76384 0 0 1 153.6 153.6v716.8a153.76384 153.76384 0 0 1-153.6 153.6zM256 102.4a51.2 51.2 0 0 0-51.2 51.2v716.8a51.2 51.2 0 0 0 51.2 51.2h512a51.2 51.2 0 0 0 51.2-51.2V153.6a51.2 51.2 0 0 0-51.2-51.2z" p-id="1529"></path><path d="M512 716.8m-102.4 0a102.4 102.4 0 1 0 204.8 0 102.4 102.4 0 1 0-204.8 0Z" p-id="1530"></path></svg>
