<?xml version="1.0" standalone="no"?><!DOCTYPE svg PUBLIC "-//W3C//DTD SVG 1.1//EN" "http://www.w3.org/Graphics/SVG/1.1/DTD/svg11.dtd"><svg t="1538633381293" class="icon" style="" viewBox="0 0 1024 1024" version="1.1" xmlns="http://www.w3.org/2000/svg" p-id="3114" xmlns:xlink="http://www.w3.org/1999/xlink" width="16" height="16"><defs><style type="text/css"></style></defs><path d="M704.512 389.12H406.016V84.48a36.352 36.352 0 0 0-72.704 0V389.12H259.584a35.328 35.328 0 0 0-34.304 36.352v512a35.328 35.328 0 0 0 34.304 36.352h444.928a102.4 102.4 0 0 0 102.4-107.52V496.64a102.4 102.4 0 0 0-102.4-107.52z m12.288 401.408a39.424 39.424 0 0 1-22.016 4.096 51.2 51.2 0 0 1-15.872 0c-39.936-10.24-46.08-57.856-51.2-108.032-6.144-41.984-11.776-88.064-37.888-86.016s-31.744 35.84-39.936 64-22.016 66.048-53.76 68.096a46.08 46.08 0 0 1-51.2-37.888c-6.144-19.968-10.24-22.016-24.064-22.016s-28.16 35.84-33.792 61.952-13.824 55.808-39.936 55.808a53.76 53.76 0 0 1-51.2-51.2h26.112s4.096 31.744 24.064 31.744a145.92 145.92 0 0 0 12.288-44.544c8.192-33.792 17.92-73.728 55.808-77.824a44.032 44.032 0 0 1 51.2 35.84c6.144 17.92 10.24 24.064 22.016 22.016s22.016-31.744 28.16-51.2c11.776-37.888 24.064-75.776 64-77.824 51.2-4.096 59.904 51.2 68.096 102.4 6.144 37.888 11.776 83.968 33.792 90.112a22.016 22.016 0 0 0 15.872 0 60.928 60.928 0 0 0 26.112-44.032l26.112 4.096a62.976 62.976 0 0 1-32.768 60.416z" p-id="3115"></path></svg>