<?xml version="1.0" standalone="no"?><!DOCTYPE svg PUBLIC "-//W3C//DTD SVG 1.1//EN" "http://www.w3.org/Graphics/SVG/1.1/DTD/svg11.dtd"><svg t="1538633287014" class="icon" style="" viewBox="0 0 1063 1024" version="1.1" xmlns="http://www.w3.org/2000/svg" p-id="2740" xmlns:xlink="http://www.w3.org/1999/xlink" width="16.609375" height="16"><defs><style type="text/css"></style></defs><path d="M512.001028 158.72 167.169028 896 856.833028 896 512.001028 158.72ZM512.001028 0 512.001028 0C534.081028 0 556.129028 14.88 572.897028 44.64L1009.953028 915.744C1043.457028 975.296 1014.945028 1024 946.657028 1024L77.345028 1024C9.057028 1024-19.454972 975.296 14.049028 915.744L451.105028 44.64C467.873028 14.88 489.921028 0 512.001028 0ZM448.001028 768A2 2 2520 1 0 576.001028 768 2 2 2520 1 0 448.001028 768zM512.001028 384C547.361028 384 576.001028 412.64 576.001028 448L556.001028 640 468.001028 640 448.001028 448C448.001028 412.64 476.641028 384 512.001028 384Z" p-id="2741"></path></svg>